HIERARCHY
ROOT mug2
{
	OFFSET 0.000000 0.000000 0.000000
	CHANNELS 6 Xposition Yposition Zposition Yrotation Xrotation Zrotation
	End Site
	{
		OFFSET 0.000000 0.000000 0.000000
	}
}
MOTION
Frames: 65
Frame Time: 0.008333334
1.436580 6.037123 4.765909 -118.009500 -3.160278 -45.690950 
1.427307 6.062159 4.793982 -118.164000 -3.423401 -47.560940 
1.416262 6.085850 4.822604 -118.371100 -3.668701 -49.443660 
1.404026 6.107486 4.849936 -118.446100 -4.122406 -51.254000 
1.393898 6.130073 4.877545 -118.687700 -4.290527 -52.993260 
1.381752 6.150044 4.907835 -119.148000 -4.605347 -54.516270 
1.373856 6.172209 4.930847 -119.076900 -4.744263 -56.408910 
1.361361 6.191136 4.957766 -119.243200 -4.891418 -57.536190 
1.350279 6.208983 4.982280 -119.386400 -5.133972 -58.843140 
1.340658 6.227080 5.008213 -119.731600 -5.169891 -59.767210 
1.329985 6.243624 5.030303 -119.912700 -5.331848 -60.871830 
1.320575 6.260025 5.047397 -119.859300 -5.611816 -62.305270 
1.311603 6.274392 5.066243 -120.016500 -5.841583 -63.312840 
1.301372 6.287652 5.084070 -120.188000 -6.003387 -64.023380 
1.293109 6.300877 5.101679 -120.161800 -6.081299 -64.332950 
1.285844 6.313117 5.115821 -120.275900 -6.324036 -65.208280 
1.276927 6.324605 5.129200 -120.217800 -6.547211 -65.501800 
1.271066 6.335159 5.141932 -120.302500 -6.629517 -65.880100 
1.264241 6.345088 5.154451 -120.056300 -6.783447 -65.638180 
1.260150 6.354322 5.163083 -120.078100 -6.811951 -65.951570 
1.254930 6.363430 5.170023 -120.226800 -6.908600 -66.081850 
1.248893 6.371440 5.176993 -120.089300 -7.005341 -65.370730 
1.244981 6.379994 5.180980 -120.079800 -6.871735 -65.116550 
1.243946 6.388751 5.180904 -120.201500 -6.897064 -65.234650 
1.238880 6.394590 5.182570 -120.141100 -6.829773 -64.224550 
1.237367 6.402028 5.180817 -120.281100 -6.672058 -63.512880 
1.236302 6.407551 5.177427 -120.378600 -6.543121 -62.811000 
1.234604 6.412274 5.175522 -120.741700 -6.417511 -61.518130 
1.236446 6.417656 5.165112 -120.264800 -6.144989 -61.009280 
1.237588 6.421201 5.156575 -120.252800 -6.048218 -59.950960 
1.239678 6.422920 5.146128 -120.014300 -5.939758 -58.955170 
1.241492 6.422454 5.133185 -119.875900 -5.936279 -57.870880 
1.244208 6.421488 5.118642 -119.701500 -5.908905 -56.711490 
1.248888 6.421021 5.103352 -119.480200 -5.789398 -55.454650 
1.253094 6.418544 5.085760 -119.259700 -5.737396 -54.026210 
1.258877 6.418057 5.067055 -119.086400 -5.470398 -52.449220 
1.265408 6.415979 5.047356 -118.888400 -5.144012 -50.887300 
1.270243 6.413817 5.026227 -118.969000 -4.956268 -49.226140 
1.275224 6.409574 5.003596 -118.885300 -4.711395 -47.507510 
1.281765 6.405838 4.979614 -118.890400 -4.315460 -45.889530 
1.289215 6.402254 4.955640 -118.885800 -3.820801 -44.023740 
1.294177 6.396463 4.929721 -118.952100 -3.523132 -42.340730 
1.299881 6.389444 4.903263 -119.123700 -3.197540 -40.525480 
1.307019 6.383118 4.875284 -119.269800 -2.769562 -38.788120 
1.313645 6.376354 4.848134 -119.529300 -2.293976 -36.879360 
1.320152 6.366425 4.818913 -119.706100 -1.852264 -35.379580 
1.326372 6.357588 4.790179 -119.870600 -1.421783 -33.489750 
1.333266 6.346268 4.760910 -119.860200 -0.943695 -31.895260 
1.340885 6.334294 4.731264 -119.838200 -0.510376 -30.268860 
1.350545 6.322502 4.703055 -119.878200 0.024370 -28.544190 
1.356899 6.308096 4.671367 -119.701200 0.269583 -26.809200 
1.365204 6.293179 4.641113 -119.575500 0.580789 -25.168790 
1.374701 6.278828 4.611952 -119.470700 1.001488 -23.395050 
1.383222 6.261680 4.579179 -119.149400 1.065080 -21.635040 
1.392636 6.243979 4.547425 -118.865800 1.327955 -20.129610 
1.401693 6.225168 4.516925 -118.705500 1.553401 -18.476650 
1.409688 6.205342 4.484352 -118.518500 1.654447 -16.742070 
1.420064 6.184636 4.452144 -118.234200 1.859052 -15.077760 
1.428467 6.163420 4.420419 -117.985300 2.049234 -13.306920 
1.438299 6.141870 4.388267 -117.792400 2.326586 -11.603000 
1.446628 6.119466 4.357559 -117.598900 2.528903 -9.820770 
1.455130 6.095983 4.327055 -117.307500 2.723945 -8.094482 
1.463449 6.072066 4.298419 -117.164000 2.848524 -6.508759 
1.471076 6.047325 4.270826 -116.909900 2.937623 -5.031464 
1.478721 6.021772 4.245033 -116.738700 2.977059 -3.768402 
